<svg width="91" height="35" viewBox="0 0 91 35" fill="none" xmlns="http://www.w3.org/2000/svg">
<path d="M15.7812 2.61719C15.8333 2.72135 15.8594 3.08594 15.8594 3.71094C15.8854 4.33594 15.8854 5.09115 15.8594 5.97656C15.8594 6.86198 15.8333 7.8125 15.7812 8.82812C15.7292 9.81771 15.6641 10.7552 15.5859 11.6406C15.4297 13.6198 15.2474 15.5729 15.0391 17.5C14.8307 19.4271 14.6224 21.1589 14.4141 22.6953C14.2318 24.2318 14.0495 25.4948 13.8672 26.4844C13.7109 27.4479 13.6198 27.9818 13.5938 28.0859C13.5417 28.2161 13.4245 28.4115 13.2422 28.6719C13.0599 28.9323 12.8646 29.1927 12.6562 29.4531C12.4479 29.6875 12.2396 29.8958 12.0312 30.0781C11.849 30.2604 11.7057 30.3516 11.6016 30.3516C11.3932 30.1693 11.0156 29.4531 10.4688 28.2031C10.2344 27.6562 9.94792 26.9792 9.60938 26.1719C9.27083 25.3385 8.88021 24.3229 8.4375 23.125C7.99479 21.9271 7.47396 20.5208 6.875 18.9062C6.30208 17.2656 5.65104 15.3646 4.92188 13.2031C5.07812 15.3385 5.20833 17.2135 5.3125 18.8281C5.41667 20.4427 5.49479 21.849 5.54688 23.0469C5.625 24.2448 5.67708 25.2604 5.70312 26.0938C5.72917 26.901 5.74219 27.5781 5.74219 28.125C5.74219 29.375 5.70312 30.0911 5.625 30.2734C5.36458 30.2734 5.07812 30.1562 4.76562 29.9219C4.47917 29.6615 4.20573 29.362 3.94531 29.0234C3.6849 28.6589 3.45052 28.3073 3.24219 27.9688C3.0599 27.6302 2.95573 27.3828 2.92969 27.2266C2.90365 27.1224 2.82552 26.6406 2.69531 25.7812C2.5651 24.9219 2.40885 23.8281 2.22656 22.5C2.07031 21.1458 1.88802 19.6354 1.67969 17.9688C1.4974 16.276 1.3151 14.5573 1.13281 12.8125C0.976562 11.0677 0.846354 9.375 0.742188 7.73438C0.638021 6.06771 0.585938 4.58333 0.585938 3.28125C0.585938 3.07292 0.846354 2.79948 1.36719 2.46094C1.88802 2.09635 2.47396 1.75781 3.125 1.44531C3.80208 1.10677 4.42708 0.820312 5 0.585938C5.57292 0.325521 5.92448 0.195312 6.05469 0.195312C6.15885 0.195312 6.26302 0.494792 6.36719 1.09375C6.4974 1.69271 6.6276 2.44792 6.75781 3.35938C6.91406 4.27083 7.08333 5.28646 7.26562 6.40625C7.47396 7.52604 7.69531 8.59375 7.92969 9.60938C8.13802 10.7031 8.39844 11.9401 8.71094 13.3203C8.97135 14.4922 9.29688 15.8984 9.6875 17.5391C10.1042 19.1797 10.5859 21.0026 11.1328 23.0078C11.1328 21.6016 11.1328 20.1042 11.1328 18.5156C11.1589 16.9271 11.1849 15.3516 11.2109 13.7891C11.237 12.2266 11.263 10.7292 11.2891 9.29688C11.3411 7.83854 11.3802 6.54948 11.4062 5.42969C11.4583 4.3099 11.4974 3.41146 11.5234 2.73438C11.5755 2.05729 11.6146 1.69271 11.6406 1.64062C11.7188 1.53646 11.9661 1.51042 12.3828 1.5625C12.7995 1.58854 13.2552 1.66667 13.75 1.79688C14.2448 1.90104 14.6875 2.04427 15.0781 2.22656C15.4948 2.38281 15.7292 2.51302 15.7812 2.61719ZM26.4062 8.63281C26.5885 8.78906 26.7578 9.08854 26.9141 9.53125C27.0964 9.97396 27.2526 10.5078 27.3828 11.1328C27.513 11.7578 27.6302 12.4349 27.7344 13.1641C27.8385 13.8932 27.9297 14.6094 28.0078 15.3125C28.0859 16.0156 28.138 16.6797 28.1641 17.3047C28.2161 17.9036 28.2552 18.3984 28.2812 18.7891C28.3073 19.2578 28.3203 19.7526 28.3203 20.2734C28.3464 20.7682 28.3464 21.25 28.3203 21.7188C28.3203 22.1615 28.2943 22.5651 28.2422 22.9297C28.2161 23.2943 28.1641 23.5677 28.0859 23.75C27.9297 24.1406 27.6562 24.4141 27.2656 24.5703C26.901 24.7005 26.4844 24.7917 26.0156 24.8438C25.7812 24.8698 25.3776 24.8828 24.8047 24.8828C24.2578 24.8568 23.6589 24.8307 23.0078 24.8047C22.3828 24.7526 21.7839 24.7005 21.2109 24.6484C20.638 24.5964 20.2083 24.5443 19.9219 24.4922C19.349 24.362 18.9323 24.1927 18.6719 23.9844C18.4375 23.776 18.2031 23.4766 17.9688 23.0859C17.8906 22.9297 17.8255 22.5391 17.7734 21.9141C17.7214 21.263 17.6823 20.4948 17.6562 19.6094C17.6562 18.6979 17.6693 17.7214 17.6953 16.6797C17.7214 15.638 17.7604 14.6484 17.8125 13.7109C17.8906 12.7734 17.9688 11.9531 18.0469 11.25C18.151 10.5469 18.2812 10.0781 18.4375 9.84375C18.6979 9.47917 19.1406 9.14062 19.7656 8.82812C20.4167 8.51562 21.0026 8.26823 21.5234 8.08594C21.7839 8.00781 22.1224 7.95573 22.5391 7.92969C22.9818 7.8776 23.4375 7.8776 23.9062 7.92969C24.401 7.95573 24.8698 8.03385 25.3125 8.16406C25.7552 8.26823 26.1198 8.42448 26.4062 8.63281ZM24.2188 20.7422C24.2708 20.638 24.3229 20.3255 24.375 19.8047C24.4531 19.2578 24.5052 18.6068 24.5312 17.8516C24.5833 17.0964 24.6094 16.2891 24.6094 15.4297C24.6354 14.5703 24.6484 13.776 24.6484 13.0469C24.6484 12.3177 24.6224 11.7057 24.5703 11.2109C24.5182 10.6901 24.4531 10.3906 24.375 10.3125C24.2448 10.2083 24.0495 10.1693 23.7891 10.1953C23.5547 10.1953 23.3073 10.2344 23.0469 10.3125C22.7865 10.3646 22.5521 10.4427 22.3438 10.5469C22.1354 10.625 21.9922 10.7031 21.9141 10.7812C21.5755 11.0677 21.3932 11.5365 21.3672 12.1875C21.3672 12.3698 21.3411 12.8906 21.2891 13.75C21.263 14.5833 21.25 15.4948 21.25 16.4844C21.25 17.4479 21.263 18.3464 21.2891 19.1797C21.3411 20.013 21.4323 20.5208 21.5625 20.7031C21.6927 20.8854 21.875 21.0286 22.1094 21.1328C22.3698 21.2109 22.6302 21.25 22.8906 21.25C23.1771 21.25 23.4375 21.2109 23.6719 21.1328C23.9323 21.0286 24.1146 20.8984 24.2188 20.7422ZM38.75 9.92188C38.776 10 38.776 10.2214 38.75 10.5859C38.724 10.9245 38.6719 11.3151 38.5938 11.7578C38.5417 12.1745 38.4766 12.5651 38.3984 12.9297C38.3203 13.2682 38.2552 13.4766 38.2031 13.5547C37.9427 13.5807 37.6823 13.5938 37.4219 13.5938C37.1615 13.5677 36.9141 13.5547 36.6797 13.5547H35.8594C35.8333 15.2734 35.7943 16.9792 35.7422 18.6719C35.6901 20.3646 35.625 21.888 35.5469 23.2422C35.4688 24.5703 35.3776 25.651 35.2734 26.4844C35.1953 27.3177 35.1172 27.7474 35.0391 27.7734C34.8568 27.7995 34.6484 27.7214 34.4141 27.5391C34.1797 27.3568 33.9453 27.1354 33.7109 26.875C33.5026 26.5885 33.3073 26.3021 33.125 26.0156C32.9688 25.7031 32.8776 25.4297 32.8516 25.1953C32.7214 23.6068 32.6042 22.0964 32.5 20.6641C32.3958 19.2057 32.3177 17.9167 32.2656 16.7969C32.1615 15.4948 32.0964 14.2839 32.0703 13.1641C31.7839 13.138 31.4974 13.099 31.2109 13.0469C30.9505 12.9948 30.6771 12.9427 30.3906 12.8906C30.1302 12.8385 29.8568 12.7865 29.5703 12.7344C29.5182 12.6823 29.4531 12.5651 29.375 12.3828C29.2969 12.1745 29.2188 11.9531 29.1406 11.7188C29.0885 11.4844 29.0365 11.263 28.9844 11.0547C28.9323 10.8203 28.9062 10.651 28.9062 10.5469C28.9062 10.4688 29.1927 10.3906 29.7656 10.3125C30.3646 10.2344 31.0938 10.1693 31.9531 10.1172C31.901 8.73698 31.862 7.53906 31.8359 6.52344C31.8359 5.48177 31.875 4.77865 31.9531 4.41406C32.0312 3.91927 32.2396 3.45052 32.5781 3.00781C32.9427 2.53906 33.3203 2.13542 33.7109 1.79688C34.1276 1.45833 34.5052 1.21094 34.8438 1.05469C35.2083 0.872396 35.4427 0.820312 35.5469 0.898438C35.625 0.950521 35.6901 1.22396 35.7422 1.71875C35.7943 2.1875 35.8333 2.82552 35.8594 3.63281C35.8854 4.4401 35.8984 5.39062 35.8984 6.48438C35.8984 7.55208 35.8984 8.6849 35.8984 9.88281C36.6797 9.83073 37.3438 9.81771 37.8906 9.84375C38.4375 9.84375 38.724 9.86979 38.75 9.92188ZM43.0469 18.7109C43.4635 18.5547 43.9323 18.3854 44.4531 18.2031C45 17.9948 45.5208 17.8125 46.0156 17.6562C46.5104 17.474 46.9531 17.3177 47.3438 17.1875C47.7344 17.0573 48.0208 16.9531 48.2031 16.875C48.1771 16.5885 48.138 16.263 48.0859 15.8984C48.0599 15.5078 48.0208 15.1432 47.9688 14.8047C47.9167 14.4401 47.8516 14.1276 47.7734 13.8672C47.6953 13.6068 47.6172 13.4505 47.5391 13.3984C47.3307 13.3203 46.9792 13.2552 46.4844 13.2031C46.0156 13.125 45.5208 13.138 45 13.2422C44.5052 13.3464 44.0495 13.5417 43.6328 13.8281C43.2161 14.1146 42.9818 14.5703 42.9297 15.1953C42.8776 15.612 42.8646 16.1328 42.8906 16.7578C42.9167 17.3828 42.9688 18.0339 43.0469 18.7109ZM51.5234 19.3359C51.4974 19.388 51.1849 19.4922 50.5859 19.6484C49.987 19.8047 49.2708 19.974 48.4375 20.1562C47.6042 20.3125 46.7188 20.4818 45.7812 20.6641C44.8438 20.8203 44.0365 20.9505 43.3594 21.0547C43.4896 22.0964 43.6458 23.0339 43.8281 23.8672C44.0104 24.6745 44.1667 25.1823 44.2969 25.3906C44.4271 25.5729 44.5964 25.7422 44.8047 25.8984C44.987 26.0286 45.2083 26.1589 45.4688 26.2891C45.7552 26.3932 46.0938 26.4714 46.4844 26.5234C46.7708 26.6016 47.0443 26.4974 47.3047 26.2109C47.513 25.9505 47.6953 25.4948 47.8516 24.8438C48.0339 24.1927 48.125 23.1641 48.125 21.7578C48.9323 21.6276 49.5573 21.5495 50 21.5234C50.4688 21.4974 50.8073 21.4974 51.0156 21.5234C51.276 21.5495 51.4323 21.5885 51.4844 21.6406C51.5104 21.7188 51.5104 21.9141 51.4844 22.2266C51.4583 22.5391 51.3932 22.9297 51.2891 23.3984C51.2109 23.8411 51.1068 24.3359 50.9766 24.8828C50.8724 25.4036 50.7422 25.9115 50.5859 26.4062C50.4297 26.875 50.2604 27.3047 50.0781 27.6953C49.8958 28.0599 49.7005 28.3203 49.4922 28.4766C48.8672 28.9453 48.0859 29.1797 47.1484 29.1797C46.2109 29.1536 45.2865 29.0234 44.375 28.7891C43.4635 28.5286 42.6432 28.2292 41.9141 27.8906C41.1849 27.526 40.7292 27.2266 40.5469 26.9922C40.4167 26.8359 40.2995 26.4453 40.1953 25.8203C40.0911 25.1693 40 24.388 39.9219 23.4766C39.8698 22.5651 39.8307 21.5625 39.8047 20.4688C39.7786 19.375 39.7917 18.3073 39.8438 17.2656C39.9219 16.224 40.026 15.2604 40.1562 14.375C40.3125 13.4896 40.5208 12.7734 40.7812 12.2266C41.1719 11.4453 41.8099 10.8073 42.6953 10.3125C43.5807 9.81771 44.5182 9.47917 45.5078 9.29688C46.4974 9.11458 47.4349 9.08854 48.3203 9.21875C49.2318 9.34896 49.9089 9.63542 50.3516 10.0781C50.612 10.3385 50.8464 10.8594 51.0547 11.6406C51.263 12.3958 51.3932 13.3203 51.4453 14.4141C51.4453 14.5182 51.4583 14.8177 51.4844 15.3125C51.5104 15.8073 51.5234 16.3411 51.5234 16.9141C51.5495 17.4609 51.5625 17.9818 51.5625 18.4766C51.5625 18.9714 51.5495 19.2578 51.5234 19.3359ZM63.9062 31.25C63.8542 31.4062 63.6979 31.6536 63.4375 31.9922C63.1771 32.3307 62.8646 32.6823 62.5 33.0469C62.1354 33.4115 61.7708 33.737 61.4062 34.0234C61.0417 34.3099 60.7422 34.4922 60.5078 34.5703C59.987 34.7266 59.4271 34.6875 58.8281 34.4531C58.2552 34.2448 57.6953 33.9583 57.1484 33.5938C56.6276 33.2292 56.1719 32.8516 55.7812 32.4609C55.3906 32.0964 55.1432 31.8229 55.0391 31.6406C54.9609 31.4583 54.8828 31.2109 54.8047 30.8984C54.7526 30.5859 54.7135 30.2734 54.6875 29.9609C54.6615 29.6484 54.6615 29.388 54.6875 29.1797C54.7396 28.9453 54.8307 28.8281 54.9609 28.8281C55.0911 28.8281 55.3906 28.9583 55.8594 29.2188C56.3542 29.4531 56.862 29.7005 57.3828 29.9609C57.9297 30.2214 58.4375 30.4297 58.9062 30.5859C59.375 30.7422 59.6615 30.7161 59.7656 30.5078C59.8698 30.3255 59.9609 29.8177 60.0391 28.9844C60.1432 28.125 60.2604 27.0833 60.3906 25.8594C60.3385 25.8594 60.2865 25.8724 60.2344 25.8984C60.2083 25.8984 60.1693 25.8984 60.1172 25.8984C59.8828 25.9766 59.5573 26.0156 59.1406 26.0156C58.724 26.0156 58.2812 25.9896 57.8125 25.9375C57.3698 25.8854 56.9271 25.7943 56.4844 25.6641C56.0677 25.5078 55.7292 25.3125 55.4688 25.0781C55.3646 24.974 55.2474 24.8177 55.1172 24.6094C55.013 24.375 54.9349 24.0755 54.8828 23.7109C54.8047 23.5547 54.6745 23.112 54.4922 22.3828C54.3099 21.6276 54.1276 20.7812 53.9453 19.8438C53.763 18.8802 53.5938 17.9167 53.4375 16.9531C53.3073 15.9896 53.2682 15.2214 53.3203 14.6484C53.3464 14.0755 53.4505 13.4896 53.6328 12.8906C53.8151 12.2656 54.0234 11.6797 54.2578 11.1328C54.5182 10.5859 54.7917 10.1172 55.0781 9.72656C55.3646 9.3099 55.651 9.02344 55.9375 8.86719C56.5625 8.55469 57.3438 8.48958 58.2812 8.67188C59.2188 8.85417 60.2214 9.20573 61.2891 9.72656C61.3151 9.46615 61.4323 9.17969 61.6406 8.86719C61.849 8.55469 62.0833 8.28125 62.3438 8.04688C62.6302 7.78646 62.9167 7.60417 63.2031 7.5C63.4896 7.36979 63.7109 7.35677 63.8672 7.46094C63.9453 7.51302 64.0104 7.8776 64.0625 8.55469C64.1146 9.20573 64.1536 10.0651 64.1797 11.1328C64.2318 12.1745 64.2578 13.3724 64.2578 14.7266C64.2839 16.0547 64.2839 17.4349 64.2578 18.8672C64.2578 20.2734 64.2448 21.6667 64.2188 23.0469C64.2188 24.4271 64.1927 25.6901 64.1406 26.8359C64.1146 27.9818 64.0755 28.9453 64.0234 29.7266C63.9974 30.5078 63.9583 31.0156 63.9062 31.25ZM61.1719 12.6953C61.0156 12.5911 60.8333 12.487 60.625 12.3828C60.4427 12.2786 60.2344 12.1745 60 12.0703C59.7656 11.9661 59.5052 11.875 59.2188 11.7969C59.0885 11.7448 58.9062 11.7969 58.6719 11.9531C58.4635 12.1094 58.2422 12.3307 58.0078 12.6172C57.7995 12.9036 57.6172 13.2552 57.4609 13.6719C57.3047 14.0625 57.2266 14.4792 57.2266 14.9219C57.2266 14.974 57.2396 15.2214 57.2656 15.6641C57.2917 16.1068 57.3307 16.6406 57.3828 17.2656C57.4349 17.8906 57.487 18.5677 57.5391 19.2969C57.5911 20.026 57.6432 20.7031 57.6953 21.3281C57.7734 21.9531 57.8385 22.487 57.8906 22.9297C57.9427 23.3464 57.9818 23.5677 58.0078 23.5938C58.112 23.6979 58.2552 23.75 58.4375 23.75C58.6458 23.75 58.8411 23.724 59.0234 23.6719C59.2318 23.6198 59.4141 23.5547 59.5703 23.4766C59.7266 23.3984 59.8438 23.3333 59.9219 23.2812C60.2604 23.0469 60.4688 22.5911 60.5469 21.9141C60.599 21.862 60.625 21.7188 60.625 21.4844C60.7031 19.7656 60.7812 18.2161 60.8594 16.8359C60.9375 15.4297 61.0417 14.0495 61.1719 12.6953ZM75.3125 9.10156C75.3646 9.17969 75.4427 9.54427 75.5469 10.1953C75.651 10.8464 75.7552 11.6536 75.8594 12.6172C75.9896 13.5807 76.1068 14.6224 76.2109 15.7422C76.3411 16.862 76.4583 17.9297 76.5625 18.9453C76.6927 19.9609 76.7969 20.8724 76.875 21.6797C76.9531 22.487 77.0182 23.0339 77.0703 23.3203C77.1484 23.7891 77.2396 24.3099 77.3438 24.8828C77.4479 25.4297 77.5391 25.9635 77.6172 26.4844C77.6953 26.9792 77.7474 27.4089 77.7734 27.7734C77.8255 28.138 77.8125 28.3594 77.7344 28.4375C77.6823 28.5156 77.474 28.5417 77.1094 28.5156C76.7448 28.4635 76.3411 28.3854 75.8984 28.2812C75.4818 28.151 75.0781 28.0078 74.6875 27.8516C74.3229 27.6693 74.0885 27.5 73.9844 27.3438C73.8802 27.2135 73.776 27.0182 73.6719 26.7578C73.5938 26.4974 73.4896 26.0417 73.3594 25.3906C73.0729 25.7812 72.7604 26.1979 72.4219 26.6406C72.1094 27.0573 71.7969 27.4479 71.4844 27.8125C71.1719 28.151 70.8854 28.4245 70.625 28.6328C70.3646 28.8411 70.1693 28.9453 70.0391 28.9453C69.8307 28.9453 69.5182 28.737 69.1016 28.3203C68.6849 27.8776 68.2682 27.3828 67.8516 26.8359C67.4349 26.2891 67.0573 25.7682 66.7188 25.2734C66.3802 24.7786 66.1979 24.4531 66.1719 24.2969C66.1198 24.1406 66.0938 23.7109 66.0938 23.0078C66.1198 22.3047 66.1458 21.5234 66.1719 20.6641C66.224 19.7786 66.276 18.9062 66.3281 18.0469C66.3802 17.1615 66.4323 16.4583 66.4844 15.9375C66.5365 15.4167 66.5885 14.8438 66.6406 14.2188C66.7188 13.5677 66.7969 12.9688 66.875 12.4219C66.9531 11.849 67.0182 11.3542 67.0703 10.9375C67.1484 10.5208 67.2135 10.2734 67.2656 10.1953C67.3177 10.1172 67.4609 10.0781 67.6953 10.0781C67.9557 10.0521 68.2161 10.0651 68.4766 10.1172C68.763 10.1432 69.0234 10.2083 69.2578 10.3125C69.4922 10.3906 69.6484 10.4948 69.7266 10.625C69.7786 10.7292 69.8047 11.0677 69.8047 11.6406C69.8307 12.1875 69.8438 12.8646 69.8438 13.6719C69.8438 14.4531 69.8438 15.3125 69.8438 16.25C69.8438 17.1615 69.8307 18.0208 69.8047 18.8281C69.8047 19.6094 69.7917 20.2865 69.7656 20.8594C69.7656 21.4062 69.7656 21.7318 69.7656 21.8359C69.7656 22.0443 69.8828 22.4479 70.1172 23.0469C70.3776 23.6458 70.638 24.2188 70.8984 24.7656L72.9297 22.3438C72.9036 21.875 72.8776 21.276 72.8516 20.5469C72.8516 19.8177 72.8385 19.0495 72.8125 18.2422C72.7865 17.4349 72.7604 16.6146 72.7344 15.7812C72.7083 14.9479 72.6953 14.1927 72.6953 13.5156C72.6953 12.8385 72.6953 12.2786 72.6953 11.8359C72.6953 11.3932 72.7083 11.1328 72.7344 11.0547C72.8125 10.8984 72.9688 10.6901 73.2031 10.4297C73.4375 10.1693 73.6979 9.92188 73.9844 9.6875C74.2708 9.45312 74.5312 9.27083 74.7656 9.14062C75.026 9.01042 75.2083 8.9974 75.3125 9.10156ZM88.3984 12.2266C88.6589 12.3828 88.9062 12.6693 89.1406 13.0859C89.401 13.5026 89.6354 13.9844 89.8438 14.5312C90.0521 15.0521 90.2214 15.625 90.3516 16.25C90.4818 16.849 90.5469 17.4219 90.5469 17.9688C90.5469 18.3333 90.4948 18.8802 90.3906 19.6094C90.2865 20.3125 90.1562 21.0938 90 21.9531C89.8438 22.7865 89.6745 23.6458 89.4922 24.5312C89.3099 25.4167 89.1406 26.224 88.9844 26.9531C88.8281 27.6823 88.6849 28.2943 88.5547 28.7891C88.4245 29.2839 88.3464 29.5573 88.3203 29.6094C88.2682 29.6875 88.112 29.7396 87.8516 29.7656C87.6172 29.7917 87.3568 29.7786 87.0703 29.7266C86.8099 29.6745 86.5625 29.5964 86.3281 29.4922C86.0938 29.388 85.9505 29.2578 85.8984 29.1016C85.8724 28.9974 85.8594 28.6719 85.8594 28.125C85.8854 27.5521 85.9115 26.875 85.9375 26.0938C85.9896 25.3125 86.0417 24.4661 86.0938 23.5547C86.1719 22.6432 86.237 21.7969 86.2891 21.0156C86.3411 20.2083 86.3802 19.5182 86.4062 18.9453C86.4583 18.3724 86.4844 18.0339 86.4844 17.9297C86.5104 17.513 86.4714 17.1094 86.3672 16.7188C86.2891 16.3021 86.1719 15.9505 86.0156 15.6641C85.8854 15.3776 85.7292 15.1562 85.5469 15C85.3906 14.8438 85.2344 14.7917 85.0781 14.8438C84.8438 14.8958 84.6094 14.9609 84.375 15.0391C84.1667 15.1172 83.9844 15.1823 83.8281 15.2344C83.6198 15.3125 83.4375 15.3906 83.2812 15.4688C83.2552 17.3958 83.2161 19.2839 83.1641 21.1328C83.112 22.9818 83.0469 24.6484 82.9688 26.1328C82.8906 27.5911 82.7995 28.776 82.6953 29.6875C82.6172 30.5729 82.526 31.0286 82.4219 31.0547C82.2135 31.0807 81.9792 30.9896 81.7188 30.7812C81.4844 30.5729 81.25 30.3125 81.0156 30C80.7812 29.7135 80.5729 29.401 80.3906 29.0625C80.2344 28.724 80.1302 28.4375 80.0781 28.2031C79.8698 25.651 79.7005 23.3724 79.5703 21.3672C79.4401 19.3359 79.3359 17.5391 79.2578 15.9766C79.1797 14.4141 79.1146 13.0599 79.0625 11.9141C79.0365 10.7682 79.0234 9.79167 79.0234 8.98438C78.9974 7.08333 79.0234 5.76823 79.1016 5.03906C79.2057 4.49219 79.4401 3.97135 79.8047 3.47656C80.1693 2.95573 80.5599 2.5 80.9766 2.10938C81.4193 1.71875 81.8229 1.43229 82.1875 1.25C82.5781 1.04167 82.8385 0.989583 82.9688 1.09375C83.0469 1.17188 83.112 1.53646 83.1641 2.1875C83.2422 2.8125 83.2943 3.65885 83.3203 4.72656C83.3464 5.76823 83.3594 6.97917 83.3594 8.35938C83.3594 9.71354 83.3464 11.1458 83.3203 12.6562C84.362 12.2396 85.3255 11.9792 86.2109 11.875C87.1224 11.7708 87.8516 11.888 88.3984 12.2266Z" fill="#228BE6"/>
</svg>
